<svg xmlns="http://www.w3.org/2000/svg" width="150" height="125" viewBox="0 0 150 125">
    <g fill="#FFF" fill-rule="evenodd">
        <text font-family="Avenir-Black, Avenir" font-size="24" font-weight="700" letter-spacing="-1.5">
            <tspan x="24.2" y="66">W</tspan> <tspan x="46.268" y="66" letter-spacing="-.3">o</tspan> <tspan x="60.608" y="66" letter-spacing="-.4">me</tspan> <tspan x="94.464" y="66">n</tspan>
        </text>
        <text font-family="Avenir-Black, Avenir" font-size="24" font-weight="700" letter-spacing="-1.37">
            <tspan x="24" y="89">T</tspan> <tspan x="33.742" y="89" letter-spacing="-.26">o</tspan> <tspan x="48.122" y="89" letter-spacing="-.13">k</tspan> <tspan x="61.336" y="89" letter-spacing="-.93">y</tspan> <tspan x="73.75" y="89">o</tspan>
        </text>
        <text font-family="Avenir-Black, Avenir" font-size="24" font-weight="700" letter-spacing="-.1">
            <tspan x="22.3" y="43">D</tspan> <tspan x="40.416" y="43" letter-spacing="-.75">e</tspan> <tspan x="53.442" y="43">v</tspan> <tspan x="66.686" y="43" letter-spacing="-.7">F</tspan> <tspan x="80.218" y="43" letter-spacing="-.12">e</tspan> <tspan x="93.874" y="43">st</tspan>
        </text>
        <path d="M14 97h13.3a.7.7 0 0 1 .7.7v12.6a.7.7 0 0 1-.7.7H.7a.7.7 0 0 1-.7-.7V.7A.7.7 0 0 1 .7 0h26.6a.7.7 0 0 1 .7.7v12.6a.7.7 0 0 1-.7.7H14v83zM124.4 91.666V14h-13.3a.7.7 0 0 1-.7-.7V.7a.7.7 0 0 1 .7-.7h26.6a.7.7 0 0 1 .7.7v109.6a.7.7 0 0 1-.7.7h-26.6a.7.7 0 0 1-.7-.7v-1.66l.052-.037c1.008-.662 1.806-1.482 2.393-2.458a11.756 11.756 0 0 0 1.295-3.007 12.4 12.4 0 0 0 .443-2.983c.02-.961-.036-1.757-.164-2.388a3.273 3.273 0 0 0-.253-.767h3.629c.328 3.054.94 6.1 1.838 9.135.039.192.228.56.568 1.106.34.545.798.974 1.375 1.285.127.06.259.111.396.155a.568.568 0 0 0 .404-.018c.236-.105.326-.295.27-.57a105.885 105.885 0 0 1-1.814-7.967 43.498 43.498 0 0 1-.47-3.126h3.679c.234.786.643 1.406 1.226 1.86.612.475 1.452.604 2.522.387.604-.123 1.168-.402 1.694-.838a7.779 7.779 0 0 0 1.404-1.528c.41-.584.778-1.194 1.106-1.833a19.35 19.35 0 0 0 .801-1.748c.613 2.59 1.117 5.101 1.512 7.535.395 2.435.77 4.873 1.124 7.315.162.796.723 1.167 1.684 1.115a.787.787 0 0 0 .645-.303c.173-.206.253-.48.24-.82-.34-3.217-.788-6.298-1.344-9.242a294.324 294.324 0 0 0-1.871-9.091 1.26 1.26 0 0 0-.394-.67c-.212-.2-.444-.36-.697-.48a1.868 1.868 0 0 0-.746-.19c-.245-.008-.424.057-.54.194-.294.375-.593.871-.896 1.49-.303.619-.627 1.27-.974 1.956a43.76 43.76 0 0 1-1.105 2.046 7.446 7.446 0 0 1-1.341 1.73c-.427.43-.808.593-1.143.49-.248-.093-.424-.4-.53-.92a5.434 5.434 0 0 1 .264-2.283c.25-.737.579-1.404.986-2.001a7.798 7.798 0 0 1 1.32-1.512c.474-.41.884-.68 1.23-.807.165.11.383.13.655.06.271-.07.486-.207.645-.41.049-.182.031-.442-.052-.783-.084-.34-.21-.578-.381-.715-.76-.503-1.556-.555-2.39-.157-.833.398-1.638 1.005-2.415 1.82a9.422 9.422 0 0 0-1.88 3zm-14 13.25v-7.202l.13.008c.363.026.671.1.924.22s.396.261.43.426c.141 1.257.084 2.448-.174 3.571-.255 1.118-.692 2.11-1.31 2.977z"/>
        <g>
            <path d="M75.186 92.085l66.83-13.597a.7.7 0 0 1 .826.547l6.3 30.965a.7.7 0 0 1-.546.826l-66.83 13.597a.7.7 0 0 1-.826-.547l-6.3-30.965a.7.7 0 0 1 .546-.826zm19.544 5.829a2.798 2.798 0 0 0-.946-.75c-.399-.205-.873-.323-1.422-.354a8.72 8.72 0 0 0-2.367.481c-.76.269-1.465.591-2.117.967a9.068 9.068 0 0 0-1.68 1.22c-.469.438-.796.834-.981 1.186a4.36 4.36 0 0 0-.056.568c-.01.23.012.412.068.544.01.054.069.128.173.221a1.335 1.335 0 0 0 1.006.31c.225-.017.486-.142.782-.373.224-.16.486-.35.784-.567.299-.218.633-.436 1.003-.654.37-.218.75-.424 1.139-.618.39-.193.773-.343 1.152-.448.268-.083.507-.14.716-.167a.915.915 0 0 1 .552.08c.093.038.175.158.244.358.07.2.085.418.047.654-.318 1.665-.875 3.386-1.671 5.162a51.862 51.862 0 0 1-2.529 4.95c-.24.364-.36.617-.36.76 0 .143.007.241.018.296.133.373.366.712.7 1.015.332.304.685.39 1.058.256.807-.25 1.709-.555 2.707-.915.998-.36 2.016-.731 3.052-1.114a1688.185 1688.185 0 0 0 5.9-2.186c.109-.022.235-.14.377-.355.142-.215.26-.446.352-.693.092-.248.138-.478.137-.692 0-.215-.091-.346-.273-.395-.148-.027-.43-.041-.844-.042a3.698 3.698 0 0 0-1.066.13c-.593.178-1.257.392-1.992.642-.735.25-1.482.508-2.242.777-.76.27-1.493.525-2.2.77-.708.243-1.303.443-1.786.598.284-.572.596-1.214.937-1.926.34-.712.662-1.45.965-2.21a28.93 28.93 0 0 0 .787-2.24c.223-.73.388-1.393.496-1.986.177-1.094-.03-2.18-.62-3.26zm19.69-.149c-.2-.988-.762-1.71-1.683-2.165-.921-.455-2.11-.606-3.564-.453-.133-.373-.315-.6-.546-.682a.638.638 0 0 0-.642.109 9.853 9.853 0 0 0-2.315 2.314 11.617 11.617 0 0 0-1.522 2.946 11.154 11.154 0 0 0-.615 3.297c-.04 1.136.09 2.231.39 3.285.266.888.635 1.578 1.106 2.068.471.49 1.002.817 1.593.983.59.165 1.22.173 1.89.022a5.41 5.41 0 0 0 1.941-.887c1.009-.663 1.806-1.482 2.393-2.459a11.756 11.756 0 0 0 1.296-3.007 12.4 12.4 0 0 0 .443-2.983c.019-.96-.036-1.757-.164-2.388zm-7.716 7.999a7.396 7.396 0 0 1-.29-2.062c0-.7.074-1.387.223-2.06.149-.673.36-1.324.632-1.95.273-.627.567-1.216.884-1.766a5.98 5.98 0 0 1 1.202-.202 8.42 8.42 0 0 1 1.178-.004c.362.027.67.1.923.22s.396.262.43.427c.141 1.257.083 2.447-.174 3.57-.257 1.125-.697 2.121-1.32 2.991-.11.165-.259.346-.447.541a5.297 5.297 0 0 1-.637.558 5.812 5.812 0 0 1-.74.472 1.846 1.846 0 0 1-.724.233c-.23-.01-.445-.08-.643-.212-.198-.13-.364-.383-.497-.756zm14.874 2.76c.126.06.258.112.396.155a.568.568 0 0 0 .403-.018c.236-.105.326-.294.27-.569a105.885 105.885 0 0 1-1.813-7.967 44.4 44.4 0 0 1-.753-8.226 1.23 1.23 0 0 0-.253-.506 2.1 2.1 0 0 0-.5-.455 2.242 2.242 0 0 0-.66-.295 1.416 1.416 0 0 0-.65-.039c-.165.034-.282.3-.352.8s-.114 1.052-.134 1.656c.119 4.377.82 8.734 2.102 13.074.04.192.229.56.568 1.106.34.545.798.973 1.376 1.284zm8.641-19.674c.165.11.384.13.655.06.272-.07.487-.206.645-.41.05-.181.032-.442-.052-.782-.083-.34-.21-.579-.38-.716-.76-.502-1.557-.555-2.39-.156-.833.398-1.639 1.004-2.416 1.82a9.422 9.422 0 0 0-2.157 3.825 9.54 9.54 0 0 0-.364 2.217 6.8 6.8 0 0 0 .25 2.178c.228.839.648 1.496 1.259 1.972.611.476 1.452.605 2.522.387.603-.123 1.168-.402 1.694-.837a7.779 7.779 0 0 0 1.403-1.529c.41-.583.779-1.194 1.106-1.832a19.35 19.35 0 0 0 .802-1.749c.612 2.59 1.116 5.102 1.511 7.536.396 2.434.77 4.872 1.124 7.315.162.795.723 1.167 1.684 1.114a.787.787 0 0 0 .646-.302c.172-.207.252-.48.24-.82-.34-3.218-.788-6.298-1.344-9.242a294.323 294.323 0 0 0-1.871-9.092 1.26 1.26 0 0 0-.394-.67c-.212-.2-.445-.36-.697-.48a1.868 1.868 0 0 0-.747-.19c-.244-.008-.424.057-.538.195-.296.374-.595.87-.897 1.49-.303.618-.628 1.27-.974 1.955a43.761 43.761 0 0 1-1.105 2.046 7.447 7.447 0 0 1-1.341 1.73c-.427.43-.808.594-1.144.49-.247-.092-.424-.4-.53-.92a5.434 5.434 0 0 1 .264-2.283c.25-.737.58-1.404.986-2a7.798 7.798 0 0 1 1.321-1.512c.474-.411.884-.68 1.23-.808z"/>
        </g>
    </g>
</svg>
