<svg xmlns="http://www.w3.org/2000/svg" width="338" height="36" viewBox="0 0 338 36">
    <g fill="#FFF" fill-rule="evenodd">
        <g fill-rule="nonzero">
            <path d="M57.358 8.056h2.252l3.115 12.6.287 1.175h.096l.36-1.174L67.3 8.056h2.108l3.665 12.6.36 1.175h.096l3.378-13.775h2.252l-4.625 17.153h-2.108L68.784 12.8l-.383-1.341h-.095l-.408 1.342-3.785 12.41h-2.108zM82.107 24.73a6.036 6.036 0 0 1-2.24-2.347c-.536-.99-.804-2.084-.804-3.282s.268-2.293.803-3.282a6.045 6.045 0 0 1 2.241-2.348c.959-.576 2.037-.862 3.234-.862 1.198 0 2.277.288 3.234.862a6.036 6.036 0 0 1 2.241 2.348c.534.99.802 2.084.802 3.282s-.268 2.291-.802 3.282a6.036 6.036 0 0 1-2.24 2.347c-.96.576-2.037.865-3.235.865-1.199-.002-2.277-.29-3.234-.865zm5.33-1.544c.646-.376 1.165-.914 1.556-1.618.391-.702.587-1.524.587-2.467 0-.943-.196-1.766-.587-2.468-.391-.702-.91-1.242-1.557-1.618a4.112 4.112 0 0 0-2.096-.562 4.17 4.17 0 0 0-2.108.562c-.655.376-1.178.916-1.569 1.618-.391.702-.587 1.525-.587 2.468 0 .943.196 1.765.587 2.467a4.136 4.136 0 0 0 1.57 1.618 4.174 4.174 0 0 0 2.107.562c.75 0 1.45-.187 2.096-.562zM93.75 12.991h1.94v1.798h.096c.351-.624.878-1.142 1.582-1.558a4.314 4.314 0 0 1 2.228-.622c.894 0 1.673.215 2.335.646a3.632 3.632 0 0 1 1.427 1.726 4.986 4.986 0 0 1 1.712-1.726c.71-.432 1.537-.646 2.48-.646 1.405 0 2.462.428 3.174 1.281.71.853 1.065 2.016 1.065 3.487v7.834h-2.013v-7.522c0-1.135-.232-1.958-.695-2.468-.463-.51-1.15-.766-2.06-.766-.608 0-1.159.175-1.654.526a3.565 3.565 0 0 0-1.163 1.413 4.437 4.437 0 0 0-.419 1.917v6.9h-2.037v-7.498c0-1.15-.232-1.982-.695-2.492-.463-.51-1.142-.766-2.037-.766-.608 0-1.158.179-1.652.538a3.64 3.64 0 0 0-1.163 1.438 4.51 4.51 0 0 0-.419 1.93v6.85h-2.035v-12.22h.002zM117.012 24.755a5.809 5.809 0 0 1-2.169-2.312c-.519-.983-.778-2.089-.778-3.32 0-1.181.244-2.266.731-3.257a5.917 5.917 0 0 1 2.072-2.373c.893-.59 1.932-.885 3.114-.885 1.2 0 2.236.268 3.115.802a5.339 5.339 0 0 1 2.025 2.217c.47.942.706 2.02.706 3.234 0 .24-.024.447-.072.622H116.1c.049.925.272 1.71.672 2.348.398.64.906 1.12 1.52 1.438.615.32 1.258.478 1.93.478 1.564 0 2.77-.733 3.616-2.204l1.725.838c-.527.991-1.242 1.772-2.144 2.348-.902.576-1.992.864-3.27.864-1.164 0-2.21-.28-3.137-.838zm6.661-6.948a3.963 3.963 0 0 0-.431-1.532c-.256-.513-.66-.943-1.21-1.294-.551-.351-1.242-.526-2.073-.526-.959 0-1.77.308-2.432.922-.664.615-1.098 1.425-1.306 2.431h7.452v-.001zM128.2 12.991h1.942v1.798h.095c.336-.608.87-1.122 1.606-1.545a4.624 4.624 0 0 1 2.347-.635c1.47 0 2.592.428 3.366 1.281s1.163 2.016 1.163 3.487v7.834h-2.037v-7.522c0-1.135-.272-1.958-.814-2.468-.543-.51-1.286-.766-2.229-.766a2.98 2.98 0 0 0-1.76.55c-.52.368-.923.851-1.21 1.45a4.297 4.297 0 0 0-.432 1.88v6.876h-2.035V12.99h-.002zM150.17 9.997h-4.816v-1.94h11.644v1.94h-4.791V25.21h-2.036V9.997zM159.537 24.755a5.809 5.809 0 0 1-2.169-2.312c-.519-.983-.778-2.089-.778-3.32 0-1.181.244-2.266.731-3.257a5.917 5.917 0 0 1 2.071-2.373c.895-.59 1.933-.885 3.115-.885 1.2 0 2.236.268 3.115.802a5.339 5.339 0 0 1 2.025 2.217c.47.942.706 2.02.706 3.234 0 .24-.024.447-.072.622h-9.656c.049.925.272 1.71.672 2.348.398.64.906 1.12 1.52 1.438.615.32 1.257.478 1.929.478 1.565 0 2.77-.733 3.617-2.204l1.725.838c-.527.991-1.242 1.772-2.144 2.348-.902.576-1.992.864-3.27.864-1.164 0-2.21-.28-3.137-.838zm6.661-6.948a3.963 3.963 0 0 0-.431-1.532c-.256-.513-.66-.943-1.21-1.294-.551-.351-1.242-.526-2.073-.526-.959 0-1.77.308-2.432.922-.664.615-1.098 1.425-1.306 2.431h7.452v-.001zM173.192 24.742a5.943 5.943 0 0 1-2.204-2.324c-.528-.981-.791-2.089-.791-3.317 0-1.23.263-2.339.79-3.33a5.823 5.823 0 0 1 2.205-2.324c.942-.559 2.005-.838 3.187-.838 1.325 0 2.44.307 3.343.923a5.05 5.05 0 0 1 1.928 2.455l-1.845.765c-.304-.75-.755-1.319-1.354-1.712-.598-.391-1.321-.587-2.169-.587-.718 0-1.39.196-2.013.587-.623.392-1.122.938-1.497 1.64-.376.704-.563 1.511-.563 2.421 0 .91.187 1.717.563 2.42.375.702.874 1.25 1.497 1.64a3.718 3.718 0 0 0 2.013.587c.863 0 1.606-.198 2.229-.598.623-.398 1.086-.966 1.39-1.7l1.82.766a5.385 5.385 0 0 1-2 2.444c-.92.624-2.033.935-3.343.935-1.18-.002-2.242-.286-3.186-.853zM183.926 8.056h2.035v5.056l-.095 1.676h.095c.336-.625.868-1.142 1.593-1.558a4.724 4.724 0 0 1 2.384-.622c1.484 0 2.62.434 3.402 1.304.783.872 1.174 2.026 1.174 3.463v7.834h-2.037v-7.521c0-1.103-.28-1.917-.838-2.445-.56-.526-1.286-.79-2.18-.79-.64 0-1.226.192-1.76.576a4.068 4.068 0 0 0-1.27 1.483 4.105 4.105 0 0 0-.468 1.893v6.804h-2.035V8.056zM197.439 12.991h1.94v1.798h.096c.351-.624.879-1.142 1.582-1.558a4.314 4.314 0 0 1 2.228-.622c.894 0 1.674.215 2.336.646a3.632 3.632 0 0 1 1.426 1.726 4.986 4.986 0 0 1 1.712-1.726c.71-.432 1.537-.646 2.48-.646 1.405 0 2.462.428 3.174 1.281.71.853 1.066 2.016 1.066 3.487v7.834h-2.014v-7.522c0-1.135-.231-1.958-.695-2.468-.463-.51-1.15-.766-2.06-.766-.608 0-1.159.175-1.654.526a3.565 3.565 0 0 0-1.163 1.413 4.417 4.417 0 0 0-.419 1.917v6.9h-2.037v-7.498c0-1.15-.231-1.982-.695-2.492-.463-.51-1.142-.766-2.037-.766-.607 0-1.158.179-1.652.538a3.64 3.64 0 0 0-1.163 1.438 4.51 4.51 0 0 0-.419 1.93v6.85h-2.032v-12.22zM219.79 25.065c-.703-.351-1.245-.834-1.628-1.449-.383-.614-.576-1.314-.576-2.096 0-1.295.487-2.305 1.461-3.032.974-.725 2.205-1.09 3.69-1.09.734 0 1.416.08 2.047.24.632.16 1.115.342 1.45.552v-.742c0-.91-.319-1.642-.958-2.194-.64-.55-1.446-.827-2.42-.827-.687 0-1.318.148-1.893.444a3.433 3.433 0 0 0-1.365 1.233l-1.533-1.15c.479-.735 1.138-1.31 1.977-1.726.84-.415 1.77-.621 2.792-.621 1.66 0 2.966.434 3.917 1.304.95.871 1.424 2.056 1.424 3.559v7.738h-1.94V23.46h-.096c-.351.59-.879 1.093-1.582 1.51-.704.414-1.493.623-2.371.623-.894 0-1.693-.177-2.395-.528zm4.505-1.796a4 4 0 0 0 1.414-1.413 3.733 3.733 0 0 0 .527-1.943c-.383-.255-.855-.462-1.414-.621-.56-.16-1.15-.24-1.773-.24-1.119 0-1.96.231-2.528.693-.568.464-.85 1.063-.85 1.798 0 .67.254 1.214.766 1.63.512.416 1.159.622 1.942.622a3.672 3.672 0 0 0 1.916-.526zM231.003 8.056h2.036v10.78l5.75-5.846h2.587v.095l-4.791 4.84 4.912 7.188v.096h-2.42l-3.93-5.87-2.108 2.109v3.761h-2.036V8.056zM245.042 24.755a5.809 5.809 0 0 1-2.169-2.312c-.519-.983-.778-2.089-.778-3.32 0-1.181.244-2.266.73-3.257a5.917 5.917 0 0 1 2.072-2.373c.895-.59 1.933-.885 3.115-.885 1.198 0 2.236.268 3.115.802a5.339 5.339 0 0 1 2.025 2.217c.47.942.706 2.02.706 3.234 0 .24-.024.447-.072.622h-9.656c.049.925.272 1.71.672 2.348.398.64.906 1.12 1.52 1.438.615.32 1.257.478 1.929.478 1.565 0 2.77-.733 3.617-2.204l1.725.838c-.528.991-1.242 1.772-2.144 2.348-.902.576-1.992.864-3.27.864-1.164 0-2.21-.28-3.137-.838zm6.66-6.948a3.963 3.963 0 0 0-.432-1.532c-.255-.513-.659-.943-1.21-1.294-.55-.351-1.242-.526-2.073-.526-.958 0-1.769.308-2.432.922-.663.615-1.097 1.425-1.306 2.431h7.453v-.001zM256.23 12.991h1.941v1.965h.096c.24-.67.704-1.231 1.39-1.676.687-.449 1.406-.67 2.157-.67.559 0 1.037.087 1.437.263v2.18a3.81 3.81 0 0 0-1.725-.385c-.59 0-1.133.168-1.629.505a3.62 3.62 0 0 0-1.186 1.357 3.918 3.918 0 0 0-.444 1.837v6.844h-2.035V12.99h-.002zM265.718 24.672c-.878-.616-1.501-1.401-1.869-2.361l1.82-.815c.304.736.755 1.303 1.355 1.703.598.4 1.257.598 1.977.598.766 0 1.42-.156 1.964-.468.543-.31.815-.755.815-1.33 0-.51-.215-.922-.647-1.231-.431-.312-1.11-.579-2.037-.804l-1.484-.384c-.974-.24-1.773-.645-2.396-1.22-.623-.577-.934-1.319-.934-2.23 0-.703.21-1.321.634-1.856.423-.535.986-.947 1.689-1.233a5.94 5.94 0 0 1 2.276-.432c1.07 0 2.025.23 2.864.694.838.464 1.433 1.11 1.784 1.94l-1.773.814c-.542-1.086-1.51-1.63-2.898-1.63-.672 0-1.259.155-1.76.468-.505.312-.756.707-.756 1.185 0 .448.175.811.528 1.09.35.28.878.51 1.581.684l1.773.454c1.2.304 2.101.755 2.707 1.353.607.6.91 1.329.91 2.193 0 .75-.214 1.41-.646 1.975-.431.567-1.014 1.004-1.748 1.305-.734.304-1.55.457-2.444.457-1.313.002-2.407-.306-3.285-.919z"/>
            <g>
                <path d="M10.469 35.52H.808a.708.708 0 0 1-.708-.708V.81C.1.42.418.103.808.103h9.66c.392 0 .708.317.708.707v3.011a.708.708 0 0 1-.707.708H5.235a.708.708 0 0 0-.708.707v25.122c0 .391.318.708.708.708h5.234c.39 0 .707.317.707.707v3.036c0 .393-.316.71-.707.71zM31.954.101h9.618c.39 0 .705.318.705.708V34.81a.706.706 0 0 1-.705.707h-9.618a.706.706 0 0 1-.705-.707V31.8c0-.392.316-.708.705-.708h5.211c.39 0 .705-.318.705-.708V5.261a.706.706 0 0 0-.705-.707h-5.211a.706.706 0 0 1-.705-.708V.81a.706.706 0 0 1 .705-.709z"/>
                <path d="M26.82 17.434l-1.744-2.584c-.028.151-.08.299-.154.433l-.008.014-3.316 5.014 5.28 7.958c.274.481.582.603.994.61h4.526c.587 0 1.062-.476 1.062-1.063v-.556l-6.64-9.826zM33.46 7.807c0-.587-.477-1.062-1.064-1.062h-4.515c-.586 0-1.067.498-1.062 1.062v8.834l6.64 9.828V7.807zM15.733 7.807c0-.587-.476-1.062-1.063-1.062h-4.515c-.587 0-1.063.475-1.063 1.062v18.756l6.64-9.798V7.807zM24.488 13.962a1.724 1.724 0 0 0-.165-.233 1.118 1.118 0 0 0-.818-.344l-4.33.001c-.429 0-.773.228-1.027.61l-2.311 3.402L9.09 27.35v.465c0 .147.036.283.098.403.165.385.53.66 1.045.66H14.774c.429 0 .778-.225 1.027-.61l5.529-8.359 3.208-4.85c.177-.322.158-.743-.05-1.098z"/>
            </g>
        </g>
        <path fill-rule="nonzero" d="M292.107 24.73a6.036 6.036 0 0 1-2.24-2.347c-.536-.99-.804-2.084-.804-3.282s.268-2.293.803-3.282a6.045 6.045 0 0 1 2.241-2.348c.959-.576 2.037-.862 3.234-.862 1.198 0 2.277.288 3.234.862a6.036 6.036 0 0 1 2.241 2.348c.534.99.802 2.084.802 3.282s-.268 2.291-.802 3.282a6.036 6.036 0 0 1-2.24 2.347c-.96.576-2.037.865-3.235.865-1.199-.002-2.277-.29-3.234-.865zm5.33-1.544c.646-.376 1.165-.914 1.556-1.618.391-.702.587-1.524.587-2.467 0-.943-.196-1.766-.587-2.468-.391-.702-.91-1.242-1.557-1.618a4.112 4.112 0 0 0-2.096-.562 4.17 4.17 0 0 0-2.108.562c-.655.376-1.178.916-1.569 1.618-.391.702-.587 1.525-.587 2.468 0 .943.196 1.765.587 2.467a4.136 4.136 0 0 0 1.57 1.618 4.174 4.174 0 0 0 2.107.562c.75 0 1.45-.187 2.096-.562zM328.107 24.73a6.036 6.036 0 0 1-2.24-2.347c-.536-.99-.804-2.084-.804-3.282s.268-2.293.803-3.282a6.045 6.045 0 0 1 2.241-2.348c.959-.576 2.037-.862 3.234-.862 1.198 0 2.277.288 3.234.862a6.036 6.036 0 0 1 2.241 2.348c.534.99.802 2.084.802 3.282s-.268 2.291-.802 3.282a6.036 6.036 0 0 1-2.24 2.347c-.96.576-2.037.865-3.235.865-1.199-.002-2.277-.29-3.234-.865zm5.33-1.544c.646-.376 1.165-.914 1.556-1.618.391-.702.587-1.524.587-2.467 0-.943-.196-1.766-.587-2.468-.391-.702-.91-1.242-1.557-1.618a4.112 4.112 0 0 0-2.096-.562 4.17 4.17 0 0 0-2.108.562c-.655.376-1.178.916-1.569 1.618-.391.702-.587 1.525-.587 2.468 0 .943.196 1.765.587 2.467a4.136 4.136 0 0 0 1.57 1.618 4.174 4.174 0 0 0 2.107.562c.75 0 1.45-.187 2.096-.562zM284.17 9.997h-4.816v-1.94h11.644v1.94h-4.791V25.21h-2.036V9.997zM304.003 8.056h2.036v10.78l5.75-5.846h2.587v.095l-4.791 4.84 4.912 7.188v.096h-2.42l-3.93-5.87-2.108 2.109v3.761h-2.036V8.056z"/>
        <text font-family="Roboto-Regular, Roboto" font-size="23" transform="translate(279.354 4)">
            <tspan x="34.736" y="21.14">y</tspan>
        </text>
    </g>
</svg>
