<?xml version="1.0" encoding="UTF-8"?>
<svg width="38px" height="31px" viewBox="0 0 38 31" version="1.1" xmlns="http://www.w3.org/2000/svg" xmlns:xlink="http://www.w3.org/1999/xlink">
    <!-- Generator: Sketch 57.1 (83088) - https://sketch.com -->
    <title>Twitter_Logo_WhiteOnImage</title>
    <desc>Created with Sketch.</desc>
    <g id="Page-1" stroke="none" stroke-width="1" fill="none" fill-rule="evenodd">
        <g id="SP_top-v2" transform="translate(-110.000000, -10175.000000)" fill="#FFFFFF" fill-rule="nonzero">
            <g id="Group-28" transform="translate(0.000000, 9941.000000)">
                <g id="Group-14" transform="translate(110.000000, 230.000000)">
                    <g id="Twitter_Logo_WhiteOnImage" transform="translate(0.000000, 4.000000)">
                        <g id="Logo__x2014__FIXED">
                            <path d="M11.9472,30.9392157 C26.2808,30.9392157 34.124,19.0558824 34.124,8.76813725 C34.124,8.43382353 34.124,8.0995098 34.1088,7.76519608 C35.6288,6.67107843 36.9512,5.28823529 38,3.72303922 C36.6016,4.34607843 35.0968,4.75637255 33.516,4.95392157 C35.1272,3.99656863 36.3584,2.46176471 36.9512,0.638235294 C35.4464,1.53480392 33.7744,2.17303922 31.996,2.52254902 C30.5672,1.00294118 28.5456,0.0607843137 26.3112,0.0607843137 C22.0096,0.0607843137 18.5136,3.55588235 18.5136,7.85637255 C18.5136,8.46421569 18.5896,9.05686275 18.7112,9.63431373 C12.236,9.31519608 6.4904,6.2 2.6448,1.48921569 C1.976,2.64411765 1.596,3.98137255 1.596,5.40980392 C1.596,8.11470588 2.9792,10.5004902 5.0616,11.8985294 C3.7848,11.8529412 2.584,11.5034314 1.5352,10.9259804 C1.5352,10.9563725 1.5352,10.9867647 1.5352,11.0323529 C1.5352,14.8009804 4.2256,17.9617647 7.7824,18.6759804 C7.1288,18.8583333 6.4448,18.9495098 5.7304,18.9495098 C5.2288,18.9495098 4.7424,18.9039216 4.2712,18.8127451 C5.2592,21.9127451 8.1472,24.1617647 11.552,24.222549 C8.8768,26.3196078 5.5176,27.5656863 1.8696,27.5656863 C1.2464,27.5656863 0.6232,27.5352941 0.0152,27.4593137 C3.4504,29.647549 7.5544,30.9392157 11.9472,30.9392157" id="Path"></path>
                        </g>
                    </g>
                </g>
            </g>
        </g>
    </g>
</svg>