<?xml version="1.0" encoding="UTF-8"?>
<svg width="36px" height="27px" viewBox="0 0 36 27" version="1.1" xmlns="http://www.w3.org/2000/svg" xmlns:xlink="http://www.w3.org/1999/xlink">
    <!-- Generator: Sketch 57.1 (83088) - https://sketch.com -->
    <title>Combined Shape</title>
    <desc>Created with Sketch.</desc>
    <g id="Page-1" stroke="none" stroke-width="1" fill="none" fill-rule="evenodd">
        <g id="SP_top-v2" transform="translate(-268.000000, -10177.000000)" fill="#FFFFFF" fill-rule="nonzero">
            <g id="Group-28" transform="translate(0.000000, 9941.000000)">
                <path d="M284.868448,257.135788 C285.550279,257.603631 286.449721,257.603631 287.131552,257.135788 L304,245.561399 L304,261.769231 C304,262.321516 303.552285,262.769231 303,262.769231 L269,262.769231 C268.447715,262.769231 268,262.321516 268,261.769231 L268,245.561399 L284.868448,257.135788 Z M268,237 C268,236.447715 268.447715,236 269,236 L303,236 C303.552285,236 304,236.447715 304,237 L304,241.267656 L287.132245,252.851993 C286.450104,253.32047 285.549896,253.32047 284.867755,252.851993 L268,241.267656 L268,237 Z" id="Combined-Shape"></path>
            </g>
        </g>
    </g>
</svg>